
<svg xmlns="http://www.w3.org/2000/svg" version="1.1" xmlns:xlink="http://www.w3.org/1999/xlink" preserveAspectRatio="none" x="0px" y="0px" width="51px" height="51px" viewBox="0 0 51 51">
<defs>
<filter id="Filter_1" x="-20%" y="-20%" width="140%" height="140%" color-interpolation-filters="sRGB">
<feColorMatrix in="SourceGraphic" type="matrix" values="0 0 0 0 0.803921568627451 0 0 0 0 0.803921568627451 0 0 0 0 0.803921568627451 0 0 0 1 0" result="result1"/>
</filter>

<g id="Layer2_0_FILL">
<path fill="#FFFFFF" stroke="none" d="
M 168.8 90.55
L 168.8 42.55 91.1 42.55 91.1 90.55 168.8 90.55
M 173.6 26.25
L 173.6 7.9 143.9 7.9 143.9 26.25 173.6 26.25
M 166.5 29.5
L 166.5 36.5 177.85 36.5 177.85 29.5 166.5 29.5
M 162.25 40.85
L 162.25 29.5 143.9 29.5 143.9 40.85 162.25 40.85 Z"/>
</g>

<g id="Layer1_0_FILL">
<path fill="#00FF00" stroke="none" d="
M -307.5 21.1
Q -308 20.3 -308.45 19.45
L -308.5 19.45
Q -310.15 20.4 -311.65 21.7 -310.15 22.95 -308.5 23.95 -306.05 25.35 -303.3 26.15 -305.6 24.3 -307.5 21.1
M -306.8 18.6
Q -306.6 18.95 -306.4 19.3 -302.6 25.65 -297.3 26.9
L -297.3 16.35
Q -302.45 16.5 -306.8 18.6
M -309.15 18
Q -309.65 16.85 -310.05 15.65 -311.1 12.75 -311.6 9.45
L -319.65 9.45
Q -318.85 12.75 -317 15.65 -315.55 17.95 -313.5 20 -313.2 20.3 -312.85 20.6 -311.1 19.1 -309.15 18
M -284.6 19.45
Q -285.05 20.3 -285.55 21.1 -287.45 24.3 -289.7 26.15 -286.95 25.35 -284.5 23.9 -282.85 22.95 -281.35 21.7 -282.85 20.45 -284.5 19.5 -284.55 19.45 -284.6 19.45
M -284.8 15.65
Q -284.65 15.25 -284.5 14.85 -283.55 12.3 -283.05 9.45
L -295.7 9.45 -295.7 14.8
Q -292.55 14.9 -289.65 15.65 -287.5 16.2 -285.5 17.2 -285.15 16.45 -284.8 15.65
M -286.65 19.3
Q -286.45 18.95 -286.2 18.6 -290.55 16.5 -295.7 16.35
L -295.7 26.9
Q -290.45 25.6 -286.65 19.3
M -303.35 15.65
Q -300.45 14.9 -297.3 14.8
L -297.3 9.45 -309.95 9.45
Q -309.5 12.35 -308.5 15 -308.35 15.3 -308.2 15.65 -307.9 16.45 -307.55 17.2 -305.55 16.2 -303.35 15.65
M -280.15 20.6
Q -279.85 20.3 -279.55 20 -277.5 17.95 -276 15.65 -274.2 12.75 -273.3 9.45
L -281.45 9.45
Q -281.95 12.75 -282.95 15.65 -283.4 16.85 -283.9 18 -281.95 19.1 -280.15 20.6
M -272.95 -1.85
L -320.05 -1.85
Q -320.45 0.15 -320.5 2.35
L -320.5 3.75
Q -320.4 5.9 -320 7.85
L -272.9 7.85
Q -272.55 5.85 -272.5 3.75
L -272.5 2.35
Q -272.55 0.15 -272.95 -1.85
M -317.8 -0.45
L -316.15 -0.45 -314.4 3.75 -312.55 -0.45 -311.5 -0.45 -309.6 3.75 -307.95 -0.45 -306.5 -0.45 -309.15 5.85 -310.25 5.85 -312.1 1.5 -314.05 5.85 -315.15 5.85 -317.8 -0.45
M -296.9 -0.45
L -295.85 -0.45 -293.95 3.75 -292.3 -0.45 -290.85 -0.45 -293.5 5.85 -294.6 5.85 -296.45 1.5 -298.4 5.85 -299.5 5.85 -302.15 -0.45 -300.5 -0.45 -298.75 3.75 -296.9 -0.45
M -286.4 -0.45
L -284.75 -0.45 -283 3.75 -281.15 -0.45 -280.05 -0.45 -278.2 3.75 -276.55 -0.45 -275.1 -0.45 -277.75 5.85 -278.8 5.85 -280.7 1.5 -282.65 5.85 -283.75 5.85 -286.4 -0.45
M -248.45 18.4
Q -248.475 18.439453125 -248.5 18.45 -250.1501953125 19.4123046875 -251.7 20.65 -250.1515625 21.9529296875 -248.5 22.95 -246.0431640625 24.3607421875 -243.35 25.1 -245.5828125 23.2810546875 -247.5 20.1 -247.999609375 19.28203125 -248.45 18.4
M -257 14.65
Q -255.55 16.95 -253.5 19 -253.1955078125 19.3044921875 -252.9 19.6 -251.0927734375 18.101171875 -249.15 17 -249.66171875 15.85703125 -250.1 14.65 -251.103125 11.7361328125 -251.6 8.45
L -259.7 8.45
Q -258.8408203125 11.7314453125 -257 14.65
M -237.3 25.9
L -237.3 15.35
Q -242.454296875 15.509375 -246.85 17.55 -246.61796875 17.941015625 -246.4 18.3 -242.585546875 24.6263671875 -237.3 25.9
M -237.3 13.8
L -237.3 8.45 -248.5 8.45 -250 8.45
Q -249.477734375 11.36953125 -248.5 13.95 -248.3705078125 14.31484375 -248.25 14.65 -247.913671875 15.425 -247.55 16.15 -245.5345703125 15.2208984375 -243.35 14.65 -240.470703125 13.8947265625 -237.3 13.8
M -224.5 18.45
Q -224.5498046875 18.4541015625 -224.6 18.4 -225.049609375 19.2806640625 -225.55 20.1 -227.45390625 23.29453125 -229.7 25.1 -226.966796875 24.341015625 -224.5 22.9 -222.8669921875 21.944921875 -221.4 20.65 -222.869140625 19.4376953125 -224.5 18.45
M -226.65 18.3
Q -226.4306640625 17.9390625 -226.25 17.55 -230.55625 15.509765625 -235.7 15.35
L -235.7 25.9
Q -230.46171875 24.6220703125 -226.65 18.3
M -223.1 8.45
L -224.5 8.45 -235.7 8.45 -235.7 13.8
Q -232.5435546875 13.8951171875 -229.7 14.65 -227.5052734375 15.2208984375 -225.5 16.15 -225.137890625 15.427734375 -224.85 14.65 -224.6560546875 14.2375 -224.5 13.8 -223.5599609375 11.2896484375 -223.1 8.45
M -213.3 8.45
L -221.45 8.45
Q -221.9466796875 11.7365234375 -223 14.65 -223.3880859375 15.8572265625 -223.9 17 -221.9556640625 18.116015625 -220.2 19.6 -219.8556640625 19.3125 -219.55 19 -217.5 16.95 -216 14.65 -214.2041015625 11.7314453125 -213.3 8.45
M -223.9 -13.05
Q -223.3751953125 -11.844140625 -222.95 -10.6 -221.940234375 -7.696875 -221.45 -4.45
L -213.35 -4.45
Q -214.228515625 -7.72109375 -216 -10.6 -217.5 -12.9 -219.55 -14.95 -219.8861328125 -15.2861328125 -220.25 -15.6 -221.980078125 -14.117578125 -223.9 -13.05
M -235.7 -9.75
L -235.7 -4.45 -224.5 -4.45 -223.05 -4.45
Q -223.5548828125 -7.317578125 -224.5 -9.9 -224.6328125 -10.2455078125 -224.8 -10.6 -225.101953125 -11.4037109375 -225.5 -12.2 -227.51484375 -11.1849609375 -229.75 -10.6 -232.5701171875 -9.8458984375 -235.7 -9.75
M -224.6 -14.45
Q -224.5341796875 -14.4546875 -224.5 -14.5 -222.8986328125 -15.4126953125 -221.45 -16.65 -222.894921875 -17.8611328125 -224.5 -18.8 -226.83046875 -20.161328125 -229.4 -20.95 -227.3298828125 -19.1466796875 -225.55 -16.2 -225.0294921875 -15.3359375 -224.6 -14.45
M -226.2 -13.55
Q -226.4142578125 -13.9591796875 -226.65 -14.35 -230.4625 -20.626953125 -235.7 -21.95
L -235.7 -11.3
Q -230.5328125 -11.4607421875 -226.2 -13.55
M -248.5 -2.85
L -250.2 -2.85 -251.8 -2.85 -260.05 -2.85
Q -260.4580078125 -0.8384765625 -260.5 1.35
L -260.5 2.75
Q -260.41796875 4.884375 -260.05 6.85
L -251.8 6.85 -250.2 6.85 -248.5 6.85 -237.3 6.85 -236.5 6.85 -235.7 6.85 -224.5 6.85 -222.85 6.85 -221.25 6.85 -212.95 6.85
Q -212.5416015625 4.869140625 -212.5 2.75
L -212.5 2.15 -212.5 1.35
Q -212.5419921875 -0.8384765625 -212.95 -2.85
L -221.25 -2.85 -222.85 -2.85 -224.5 -2.85 -235.7 -2.85 -236.5 -2.85 -237.3 -2.85 -248.5 -2.85
M -257.8 -1.45
L -256.15 -1.45 -254.4 2.75 -252.55 -1.45 -251.95 -1.45 -251.5 -1.45
Q -251.1173828125 -0.60546875 -250.75 0.25
L -250.7 0.4 -250.5 0.8 -249.6 2.75 -248.5 -0.05 -247.95 -1.45 -246.5 -1.45 -248.5 3.3 -249.15 4.85 -250.25 4.85 -250.45 4.4 -251.85 1.15 -252.05 0.65 -252.1 0.5 -254.05 4.85 -255.15 4.85 -257.8 -1.45
M -242.15 -1.45
L -240.5 -1.45 -238.75 2.75 -237.3 -0.55 -236.9 -1.45 -236.5 -1.45 -235.85 -1.45 -235.7 -1.15 -233.95 2.75 -232.3 -1.45 -230.85 -1.45 -233.5 4.85 -234.6 4.85 -235.7 2.25 -236.45 0.5 -236.5 0.6 -237.3 2.4 -238.4 4.85 -239.5 4.85 -242.15 -1.45
M -224.75 -1.45
L -224.5 -0.85 -223 2.75 -222.55 1.7 -221.15 -1.45 -221.15 -1.45 -220.05 -1.45 -218.2 2.75 -216.55 -1.45 -215.1 -1.45 -217.75 4.85 -218.8 4.85 -220.7 0.5 -221 1.15 -222.65 4.85 -223.75 4.85 -224.5 3.05 -224.7 2.65 -224.75 2.5 -226.4 -1.45 -224.75 -1.45
M -243.35 -10.6
Q -245.5388671875 -11.1814453125 -247.6 -12.15 -247.951171875 -11.395703125 -248.3 -10.6 -248.3865234375 -10.3021484375 -248.5 -10 -249.480859375 -7.3861328125 -250 -4.45
L -248.5 -4.45 -237.3 -4.45 -237.3 -9.75
Q -240.4552734375 -9.8451171875 -243.35 -10.6
M -246.4 -14.35
Q -246.6361328125 -13.9583984375 -246.85 -13.55 -242.4724609375 -11.460546875 -237.3 -11.3
L -237.3 -21.95
Q -242.587109375 -20.62734375 -246.4 -14.35
M -251.7 -16.65
Q -250.146875 -15.37421875 -248.5 -14.45 -248.0236328125 -15.33125 -247.5 -16.2 -245.678125 -19.183203125 -243.55 -21 -246.1537109375 -20.1974609375 -248.5 -18.85 -250.144921875 -17.887890625 -251.7 -16.65
M -249.2 -13
Q -251.0849609375 -14.102734375 -252.85 -15.6 -253.175 -15.275 -253.5 -14.95 -255.55 -12.9 -257 -10.6 -258.8158203125 -7.72109375 -259.7 -4.45
L -251.6 -4.45
Q -251.10390625 -7.699609375 -250.1 -10.6 -249.690234375 -11.8314453125 -249.2 -13
M -282.95 -9.6
Q -281.95 -6.7 -281.45 -3.45
L -273.3 -3.45
Q -274.25 -6.7 -276 -9.6 -277.5 -11.9 -279.55 -13.95 -279.9 -14.3 -280.2 -14.6 -282 -13.1 -283.9 -12 -283.4 -10.85 -282.95 -9.6
M -295.7 -8.75
L -295.7 -3.45 -283.05 -3.45
Q -283.55 -6.3 -284.5 -8.85 -284.65 -9.25 -284.75 -9.6 -285.1 -10.4 -285.45 -11.15 -287.5 -10.2 -289.7 -9.6 -292.55 -8.85 -295.7 -8.75
M -284.5 -17.8
Q -286.85 -19.15 -289.4 -19.9 -287.35 -18.15 -285.55 -15.2 -285.05 -14.35 -284.55 -13.4 -284.55 -13.45 -284.5 -13.45 -282.9 -14.4 -281.4 -15.65 -282.9 -16.85 -284.5 -17.8
M -286.2 -12.55
Q -286.4 -12.95 -286.65 -13.35 -290.45 -19.65 -295.7 -20.9
L -295.7 -10.3
Q -290.55 -10.45 -286.2 -12.55
M -308.25 -9.6
Q -308.4 -9.3 -308.5 -9 -309.5 -6.4 -309.95 -3.45
L -297.3 -3.45 -297.3 -8.75
Q -300.45 -8.85 -303.3 -9.6 -305.55 -10.2 -307.55 -11.15 -307.95 -10.4 -308.25 -9.6
M -306.4 -13.35
Q -306.65 -12.95 -306.85 -12.55 -302.45 -10.45 -297.3 -10.3
L -297.3 -20.9
Q -302.6 -19.65 -306.4 -13.35
M -308.5 -13.4
Q -308 -14.35 -307.5 -15.2 -305.7 -18.2 -303.55 -19.95 -306.15 -19.2 -308.5 -17.85 -310.15 -16.9 -311.65 -15.6 -310.15 -14.35 -308.5 -13.4
M -312.85 -14.55
Q -313.15 -14.25 -313.5 -13.95 -315.55 -11.9 -317 -9.6 -318.8 -6.7 -319.7 -3.45
L -311.55 -3.45
Q -311.1 -6.7 -310.1 -9.6 -309.7 -10.85 -309.15 -12 -311.1 -13.1 -312.85 -14.55 Z"/>

<path fill="#FFFFFF" stroke="none" d="
M -16.95 73
L -16.95 121 60.75 121 60.75 82.65 18.4 82.65 8.75 73 -16.95 73
M -9.95 114
L -9.95 80 1.75 80 11.4 89.65 53.75 89.65 53.75 114 -9.95 114
M -43.4 79.4
L -57.15 79.4 -61.4 84.65 -39.15 84.65 -43.4 79.4
M -33.05 43.3
Q -33.7765625 42.5734375 -34.7 42.55
L -65.8 42.55
Q -66.7734375 42.5734375 -67.5 43.3 -68.2265625 44.0265625 -68.25 45
L -68.25 73.3 -61.4 78.55 -39.15 78.55 -32.25 73.3 -32.25 45.1
Q -32.3 44.05 -33.05 43.3
M -57.05 47.8
Q -55.3609375 47.8390625 -54.15 49.05 -52.9390625 50.2609375 -52.9 51.95
L -52.9 56.3 -61.4 56.3 -61.4 51.95
Q -61.3609375 50.2609375 -60.15 49.05 -58.9390625 47.8390625 -57.25 47.8
L -57.05 47.8
M -43.5 47.8
L -43.3 47.8
Q -41.6109375 47.8390625 -40.4 49.05 -39.1890625 50.2609375 -39.15 51.95
L -39.15 56.3 -47.65 56.3 -47.65 51.95
Q -47.6109375 50.2609375 -46.4 49.05 -45.140625 47.8390625 -43.5 47.8
M -58.95 64.8
L -41.7 64.8
Q -40.6765625 64.8234375 -39.95 65.55 -39.2 66.3 -39.15 67.35
L -39.15 67.45
Q -39.2 68.5 -39.95 69.25 -40.7 70 -41.75 70.05
L -58.85 70.05
Q -59.9 70 -60.65 69.25 -61.3765625 68.5234375 -61.4 67.5
L -61.4 67.25
Q -61.3765625 66.2765625 -60.65 65.55 -59.9234375 64.8234375 -58.95 64.8
M -28.25 -6.1
L -42 -6.1 -42 7.65 -28.25 7.65 -28.25 -6.1
M -42 -32.4
L -42 -10.15 -19.75 -10.15 -19.75 -32.4 -42 -32.4 Z"/>

<path fill="#FF0000" stroke="none" d="
M -98.95 89.2
Q -100.6876953125 89.8162109375 -102.2 90.95
L -102.2 111.55
Q -100.6876953125 112.6837890625 -98.95 113.3
L -98.95 89.2
M -95 88.5
Q -97.1025390625 88.5619140625 -98.95 89.2
L -98.95 113.3
Q -97.1025390625 113.9380859375 -95 114
L -95 88.5
M -85.7 92.25
Q -89.3 88.65 -94.4 88.5
L -95 88.5 -95 114 -94.4 114
Q -89.3 113.85 -85.7 110.25 -82.1 106.65 -81.95 101.55
L -81.95 100.95
Q -82.1 95.85 -85.7 92.25
M -102.2 90.95
Q -102.9798828125 91.5298828125 -103.7 92.25 -107.3 95.85 -107.45 100.95
L -107.45 101.55
Q -107.3 106.65 -103.7 110.25 -102.9798828125 110.9701171875 -102.2 111.55
L -102.2 90.95
M -101.35 75.5
Q -102.1 74.75 -103 74.75
L -103.35 74.75
Q -104.3 74.75 -105.05 75.5 -105.8 76.25 -105.8 77.2
L -105.8 77.55
Q -105.8 78.45 -105.05 79.2 -104.3 79.95 -103.25 80
L -103.15 80
Q -102.1 79.95 -101.35 79.2 -100.6 78.45 -100.55 77.4
L -100.55 77.3
Q -100.6 76.25 -101.35 75.5
M -121.6 73
Q -122.55 73 -123.3 73.75 -124.05 74.5 -124.05 75.5
L -124.05 75.75
Q -124.05 76.7 -123.3 77.45 -122.55 78.2 -121.5 78.25
L -121.4 78.25
Q -120.35 78.2 -119.6 77.45 -118.85 76.7 -118.8 75.65
L -118.8 75.55
Q -118.85 74.5 -119.6 73.75 -120.35 73 -121.25 73
L -121.6 73
M -118.8 47.7
L -118.8 47.5
Q -118.85 45.8 -120.05 44.6 -121.25 43.4 -122.95 43.35
L -123.15 43.35
Q -124.85 43.4 -126.05 44.6 -127.25 45.8 -127.3 47.5
L -127.3 47.7
Q -127.25 49.4 -126.05 50.6 -124.85 51.8 -123.15 51.85
L -122.95 51.85
Q -121.25 51.8 -120.05 50.6 -118.85 49.4 -118.8 47.7
M -68.25 32.95
L -68.25 32.85
Q -68.3 31.8 -69.05 31.05 -69.8 30.3 -70.75 30.3
L -71 30.3
Q -72 30.3 -72.75 31.05 -73.5 31.8 -73.5 32.85
L -73.5 32.95
Q -73.5 34 -72.75 34.75 -72 35.5 -70.95 35.55
L -70.85 35.55
Q -69.8 35.5 -69.05 34.75 -68.3 34 -68.25 32.95 Z"/>

<path fill="#999999" stroke="none" d="
M -28.75 68.75
Q -25.15 65.15 -25 60.05
L -25 59.45
Q -25.15 54.35 -28.75 50.75 -29.45 50.05 -30.25 49.45
L -30.25 70.05
Q -29.45 69.45 -28.75 68.75
M -71.45 68.75
Q -70.75 69.45 -69.95 70.05
L -69.95 49.45
Q -70.75 50.05 -71.45 50.75 -75.05 54.35 -75.2 59.45
L -75.2 60.05
Q -75.05 65.15 -71.45 68.75
M -46.5 24
Q -46.5 22.2 -47.75 21 -49 19.75 -50.75 19.75 -50.8 19.75 -50.85 19.75 -51.05 19.75 -51.2 19.8 -52.7 19.9 -53.8 21 -55 22.2 -55 24 -55 25.75 -53.8 27 -53.25 27.55 -52.55 27.9
L -52.55 35.5 -54.8 35.5 -57.6 38.75 -57.6 40.75 -43.85 40.75 -43.85 38.75 -46.3 35.5 -48.8 35.5 -49.15 27.95
Q -48.4 27.65 -47.75 27 -46.5 25.75 -46.5 24 Z"/>

<path fill="#000000" stroke="none" d="
M -19.75 35.55
L -19.75 13.3 -23 13.3 -23 35.55 -19.75 35.55
M -25.45 13.3
L -30.7 13.3 -30.7 35.55 -25.45 35.55 -25.45 13.3 Z"/>

<path fill="#6633FF" stroke="none" d="
M -143.5 -3.85
L -143.75 -4.45 -145.4 -4.45 -143.5 0.05 -143.5 -3.85
M -142 -0.25
L -143.5 -3.85 -143.5 0.05 -142.75 1.85 -141.65 1.85 -139.7 -2.5 -137.8 1.85 -136.75 1.85 -134.1 -4.45 -135.55 -4.45 -137.2 -0.25 -139.05 -4.45 -140.15 -4.45 -142 -0.25
M -155.5 -4.45
L -155.5 -2.4 -155.45 -2.5 -153.6 1.85 -152.5 1.85 -149.85 -4.45 -151.3 -4.45 -152.95 -0.25 -154.85 -4.45 -155.5 -4.45
M -157.75 -0.25
L -159.5 -4.45 -161.15 -4.45 -158.5 1.85 -157.4 1.85 -155.5 -2.4 -155.5 -4.45 -155.9 -4.45 -157.75 -0.25
M -166.95 -4.45
L -167.5 -3.05 -167.5 0.3 -165.5 -4.45 -166.95 -4.45
M -173.4 -0.25
L -175.15 -4.45 -176.8 -4.45 -174.15 1.85 -173.05 1.85 -171.1 -2.5 -169.25 1.85 -168.15 1.85 -167.5 0.3 -167.5 -3.05 -168.6 -0.25 -170.5 -4.45 -171.55 -4.45 -173.4 -0.25
M -222.55 2
Q -222.55 1.8650390625 -222.55 1.7
L -223 2.75 -224.5 -0.85 -224.5 3.05 -223.75 4.85 -222.65 4.85
Q -222.55 3.4578125 -222.55 2
M -221.15 -1.45
L -221.15 -1.45 -222.55 1.7
Q -222.55 1.8650390625 -222.55 2 -222.55 3.4578125 -222.65 4.85
L -221 1.15
Q -221.02890625 -0.1578125 -221.15 -1.45
M -220.05 -1.45
L -221.15 -1.45
Q -221.02890625 -0.1578125 -221 1.15
L -220.7 0.5 -218.8 4.85 -217.75 4.85 -215.1 -1.45 -216.55 -1.45 -218.2 2.75 -220.05 -1.45
M -224.5 -0.85
L -224.75 -1.45 -226.4 -1.45 -224.75 2.5 -224.7 2.65 -224.5 3.05 -224.5 -0.85
M -230.85 -1.45
L -232.3 -1.45 -233.95 2.75 -235.7 -1.15 -235.7 2.25 -234.6 4.85 -233.5 4.85 -230.85 -1.45
M -235.85 -1.45
L -236.5 -1.45 -236.5 0.6 -236.45 0.5 -235.7 2.25 -235.7 -1.15 -235.85 -1.45
M -236.9 -1.45
L -237.3 -0.55 -237.3 2.4 -236.5 0.6 -236.5 -1.45 -236.9 -1.45
M -240.5 -1.45
L -242.15 -1.45 -239.5 4.85 -238.4 4.85 -237.3 2.4 -237.3 -0.55 -238.75 2.75 -240.5 -1.45
M -249.6 2.75
L -250.5 0.8
Q -250.5 1.4015625 -250.5 2 -250.5 3.235546875 -250.45 4.4
L -250.25 4.85 -249.15 4.85 -248.5 3.3 -248.5 -0.05 -249.6 2.75
M -246.5 -1.45
L -247.95 -1.45 -248.5 -0.05 -248.5 3.3 -246.5 -1.45
M -251.5 -1.45
L -251.95 -1.45
Q -252.0021484375 -0.4111328125 -252.05 0.65
L -251.85 1.15 -250.45 4.4
Q -250.5 3.235546875 -250.5 2 -250.5 1.4015625 -250.5 0.8
L -250.7 0.4 -250.75 0.25
Q -251.1173828125 -0.60546875 -251.5 -1.45
M -256.15 -1.45
L -257.8 -1.45 -255.15 4.85 -254.05 4.85 -252.1 0.5 -252.05 0.65
Q -252.0021484375 -0.4111328125 -251.95 -1.45
L -252.55 -1.45 -254.4 2.75 -256.15 -1.45 Z"/>
</g>

<g id="eyes_robot_0_Layer0_0_FILL">
<path fill="#FF0000" stroke="none" d="
M 8.5 8.6
L 8.5 0.1 0 0.1 0 8.6 8.5 8.6
M 22.25 8.5
L 22.25 0 13.75 0 13.75 8.5 22.25 8.5 Z"/>
</g>

<g id="www_globe_0_Layer0_0_FILL">
<path fill="#FFFFFF" stroke="none" d="
M 6.1 24.65
L 4.35 20.45 2.7 20.45 5.35 26.75 6.45 26.75 8.4 22.4 10.25 26.75 11.35 26.75 14 20.45 12.55 20.45 10.9 24.65 9 20.45 7.95 20.45 6.1 24.65
M 24.65 20.45
L 23.6 20.45 21.75 24.65 20 20.45 18.35 20.45 21 26.75 22.1 26.75 24.05 22.4 25.9 26.75 27 26.75 29.65 20.45 28.2 20.45 26.55 24.65 24.65 20.45
M 43.95 20.45
L 42.3 24.65 40.45 20.45 39.35 20.45 37.5 24.65 35.75 20.45 34.1 20.45 36.75 26.75 37.85 26.75 39.8 22.4 41.7 26.75 42.75 26.75 45.4 20.45 43.95 20.45
M 35.9 40.35
Q 35.45 41.2 34.95 42 33.05 45.2 29.3 47.65 33.55 46.25 36 44.8 37.65 43.85 39.15 42.6 37.65 41.35 36 40.4 35.95 40.35 35.9 40.35
M 24.8 37.25
L 24.8 47.8
Q 30.05 46.5 33.85 40.2 34.05 39.85 34.3 39.5 29.95 37.4 24.8 37.25
M 35.7 36.55
Q 35.85 36.15 36 35.75 36.95 33.2 37.45 30.35
L 24.8 30.35 24.8 35.7
Q 27.95 35.8 30.85 36.55 33 37.1 35 38.1 35.35 37.35 35.7 36.55
M 13.7 39.5
Q 13.9 39.85 14.1 40.2 17.9 46.55 23.2 47.8
L 23.2 37.25
Q 18.05 37.4 13.7 39.5
M 12 44.85
Q 14.45 46.25 18.55 47.5 14.9 45.2 13 42 12.5 41.2 12.05 40.35
L 12 40.35
Q 10.35 41.3 8.85 42.6 10.35 43.85 12 44.85
M 8.9 30.35
L 0.85 30.35
Q 1.65 33.65 3.5 36.55 4.95 38.85 7 40.9 7.3 41.2 7.65 41.5 9.4 40 11.35 38.9 10.85 37.75 10.45 36.55 9.4 33.65 8.9 30.35
M 12 35.9
Q 12.15 36.2 12.3 36.55 12.6 37.35 12.95 38.1 14.95 37.1 17.15 36.55 20.05 35.8 23.2 35.7
L 23.2 30.35 10.55 30.35
Q 11 33.25 12 35.9
M 10.4 11.3
Q 10.8 10.05 11.35 8.9 9.4 7.8 7.65 6.35 7.35 6.65 7 6.95 4.95 9 3.5 11.3 1.7 14.2 0.8 17.45
L 8.95 17.45
Q 9.4 14.2 10.4 11.3
M 12 7.5
Q 12.5 6.55 13 5.7 14.8 2.7 16.95 0.95 14.35 1.7 12 3.05 10.35 4 8.85 5.3 10.35 6.55 12 7.5
M 23.2 17.45
L 23.2 12.15
Q 20.05 12.05 17.2 11.3 14.95 10.7 12.95 9.75 12.55 10.5 12.25 11.3 12.1 11.6 12 11.9 11 14.5 10.55 17.45
L 23.2 17.45
M 23.2 10.6
L 23.2 0
Q 17.9 1.25 14.1 7.55 13.85 7.95 13.65 8.35 18.05 10.45 23.2 10.6
M 35.05 9.75
Q 33 10.7 30.8 11.3 27.95 12.05 24.8 12.15
L 24.8 17.45 37.45 17.45
Q 36.95 14.6 36 12.05 35.85 11.65 35.75 11.3 35.4 10.5 35.05 9.75
M 34.3 8.35
Q 34.1 7.95 33.85 7.55 30.05 1.25 24.8 0
L 24.8 10.6
Q 29.95 10.45 34.3 8.35
M 39.1 5.25
Q 37.6 4.05 36 3.1 33.65 1.75 29.65 0.25 33.15 2.75 34.95 5.7 35.45 6.55 35.95 7.5 35.95 7.45 36 7.45 37.6 6.5 39.1 5.25
M 44.5 36.55
Q 46.3 33.65 47.2 30.35
L 39.05 30.35
Q 38.55 33.65 37.55 36.55 37.1 37.75 36.6 38.9 38.55 40 40.35 41.5 40.65 41.2 40.95 40.9 43 38.85 44.5 36.55
M 44.5 11.3
Q 43 9 40.95 6.95 40.6 6.6 40.3 6.3 38.5 7.8 36.6 8.9 37.1 10.05 37.55 11.3 38.55 14.2 39.05 17.45
L 47.2 17.45
Q 46.25 14.2 44.5 11.3 Z"/>
</g>

<path id="Layer1_0_1_STROKES" stroke="#0066FF" stroke-opacity="0.8470588235294118" stroke-width="1" stroke-linejoin="round" stroke-linecap="round" fill="none" d="
M -102.2 89.2
L -102.2 90.95
M -98.95 89.2
L -98.95 88.5 -107.45 88.5 -107.45 100.95
M -102.2 90.95
L -102.2 111.55
M -98.95 89.2
L -98.95 113.3
M -98.95 88.5
L -95 88.5
M -95 114
L -98.95 114 -107.45 114 -107.45 101.55
M -98.95 113.3
L -98.95 114
M -102.2 111.55
L -102.2 113.3
M -95 88.5
L -95 114"/>

<path id="Layer1_0_2_STROKES" stroke="#FF0000" stroke-width="0.1" stroke-linejoin="round" stroke-linecap="round" fill="none" d="
M -248.5 -18.975
L -248.5 -18.85
Q -246.1537109375 -20.1974609375 -243.55 -20.975 -240.614453125 -21.83125 -237.35 -21.95
L -239.25 -21.95
M -245.975 -21.95
L -242.225 -21.95
M -248.5 -20.8
L -248.5 -18.975
M -251.675 -16.625
Q -250.144921875 -17.887890625 -248.5 -18.85
M -245.975 -21.95
L -248.5 -21.95 -248.5 -20.8
M -252.85 -15.575
Q -252.268359375 -16.126953125 -251.675 -16.625
M -237.3 -21.95
L -237.35 -21.95 -237.35 -22.075
M -242.225 -21.95
L -239.25 -21.95
M -248.5 -14.4
L -248.5 -12.625
M -237.3 -21.95
L -237.225 -21.95
M -237.35 -21.95
L -237.3 -22
M -250.1 -10.6
L -248.5 -10.6 -248.5 -12.625
M -252.85 -15.575
Q -253.175 -15.275 -253.5 -14.95 -255.55 -12.9 -257 -10.6 -258.8158203125 -7.72109375 -259.7 -4.45
M -258.45 -21.95
L -260.5 -21.95 -260.5 -10.6 -259 -10.6 -257.175 -10.6
M -258.45 -21.95
L -256.6 -21.95
M -214.625 -21.95
L -212.5 -21.95 -212.5 -10.6 -212.5 -7.3
M -210.875 0.5
L -210.85 0.5 -210.85 1.3 -210.85 2
M -212.5 11.275
L -212.5 14.65 -212.5 26.05
M -257 -10.6
L -257.175 -10.6
M -259.7 -4.45
Q -259.8029296875 -4.0283203125 -259.9 -3.6
L -251.7 -3.6
M -248.5 -10
L -248.5 -10.6 -248.275 -10.6
M -237.3 -10.6
L -243.325 -10.6
M -236.5 -11.3
L -236.5 -21.95 -237.225 -21.95
M -237.3 -22
L -237.225 -22.075
M -237.35 -22.075
L -237.35 -22.75 -237.35 -23.6 -237.3 -23.6
M -260.5 -7.45
L -260.5 -10.6 -264.85 -10.6
M -260.5 -4.45
L -260.5 -3.6 -260.05 -3.6 -259.9 -3.6
Q -259.987109375 -3.228125 -260.05 -2.85
M -251.7 -3.6
L -250.1 -3.6
M -260.5 -4.45
L -260.5 -7.45
M -262.1 -0.3
L -261.3 -0.3 -260.55 -0.3
M -260.5 -0.825
L -260.5 -2.85 -260.5 -3.6
M -262.1 -0.3
L -262.15 -0.3 -262.1 -0.25 -261.3 0.55 -261.3 0.5 -261.3 -0.3
M -260.5 -0.825
L -260.5 -0.3 -260.5 0.5 -260.5 1.35
Q -260.4580078125 -0.8384765625 -260.05 -2.85
M -260.55 -0.3
L -260.5 -0.3 -260.55 -0.25
M -260.6 0.5
L -260.5 0.5
M -248.5 -4.45
L -248.5 -3.6 -237.3 -3.6
M -236.5 -9.75
L -236.5 -4.45
M -237.3 -10.6
L -236.5 -10.6 -236.5 -11.3
M -235.775 -21.95
L -236.5 -21.95 -236.5 -22.1 -236.5 -22.75 -236.55 -22.75 -237.225 -22.075
M -237.3 -22.75
L -237.35 -22.75
M -250.1 -3.6
L -248.5 -3.6 -248.5 -2.85
M -237.3 -3.6
L -236.5 -3.6 -236.5 -4.45
M -236.5 -9.75
L -236.5 -10.6 -235.7 -10.6
M -235.775 -21.95
L -235.7 -21.95
M -235.85 -22.1
L -236.5 -22.75 -237.3 -23.55
M -236.55 -22.75
L -237.3 -22.75
M -256.6 -21.95
L -248.5 -21.95
M -216.5 -21.95
L -214.625 -21.95
M -214.075 -10.6
L -212.5 -10.6
M -224.5 -18.975
L -224.5 -18.8
Q -222.894921875 -17.8611328125 -221.425 -16.65
M -229.4 -20.925
Q -226.83046875 -20.161328125 -224.5 -18.8
M -216.5 -21.95
L -224.5 -21.95 -224.5 -20.775 -224.5 -18.975
M -227.05 -21.95
L -224.5 -21.95
M -233.55 -21.95
L -235.7 -21.95
Q -232.388671875 -21.836328125 -229.4 -20.925
M -221.425 -16.65
Q -220.815625 -16.15078125 -220.225 -15.6
M -215.9 -10.6
L -214.075 -10.6
M -212.5 -7.3
L -212.5 -3.6 -212.5 -0.225
M -212.45 0.5
L -211.65 0.5 -210.875 0.5
M -210.875 0.525
L -210.85 0.5
M -224.5 -14.475
L -224.5 -14.3
M -220.225 -15.6
Q -219.8861328125 -15.2861328125 -219.55 -14.95 -217.5 -12.9 -216 -10.6
L -215.9 -10.6
M -212.65 -3.6
L -212.5 -3.6
M -224.5 -14.3
L -224.5 -12.675
M -216 -10.6
Q -214.228515625 -7.72109375 -213.325 -4.45
M -224.5 -12.675
L -224.5 -10.6 -222.95 -10.6
M -227.05 -21.95
L -230.775 -21.95 -233.55 -21.95
M -235.7 -21.95
L -235.85 -22.1
M -235.7 -22.8
L -236.5 -22.8 -236.5 -22.75
M -237.3 -23.6
L -236.5 -23.6 -235.7 -23.6 -236.5 -22.8 -236.5 -23.6
M -237.3 -23.55
L -237.35 -23.6
M -229.725 -10.6
L -235.7 -10.6
M -235.7 -3.6
L -236.5 -3.6 -236.5 -2.85
M -224.5 -9.875
L -224.5 -10.6 -224.775 -10.6
M -224.5 -4.45
L -224.5 -3.6 -222.925 -3.6
M -221.325 -3.6
L -213.1 -3.6
Q -213.202734375 -4.0283203125 -213.325 -4.45
M -213 -3.6
L -212.65 -3.6
M -212.5 -0.225
L -212.5 0.5 -212.45 0.5
M -212.45 0.55
L -211.65 1.35 -211.65 1.3 -211.65 0.5
M -224.5 -2.85
L -224.5 -3.6 -235.7 -3.6
M -213.1 -3.6
L -213 -3.6
M -212.95 -2.85
Q -212.5419921875 -0.8384765625 -212.5 1.35
L -212.5 0.5 -212.45 0.55
M -212.4 1.35
L -211.7 1.35 -211.65 1.35 -210.85 2.15 -211.65 2.15 -212.4 2.15
M -212.5 4.325
L -212.5 7.65 -212.5 7.7 -212.5 11.275
M -212.5 14.65
L -214.125 14.65
M -213.1 -3.6
Q -213.012890625 -3.228125 -212.95 -2.85
M -222.925 -3.6
L -221.325 -3.6
M -183.85 -13.6
L -179.5 -13.6 -179.5 -24.95 -167.5 -24.95 -156.25 -24.95 -155.5 -24.95 -154.75 -24.95 -143.5 -24.95 -131.5 -24.95 -131.5 -13.6 -131.5 -6.6 -131.5 -1.65 -131.5 -0.25 -131.5 4.65 -131.5 4.7 -131.5 11.65 -131.5 23.05
M -156.25 -24.95
Q -162.4681640625 -24.774609375 -167.5 -21.85
L -167.5 -13.6 -155.5 -13.6 -155.5 -24.95
M -179.5 -6.6
L -178.9 -6.6
Q -178.040625 -10.3544921875 -176 -13.6
L -179.5 -13.6 -179.5 -6.6 -179.5 -1.65
Q -179.4279296875 -4.229296875 -178.9 -6.6
L -167.5 -6.6 -167.5 -13.6 -176 -13.6
Q -174.546875 -15.903125 -172.5 -17.95 -170.1666015625 -20.2833984375 -167.5 -21.85
L -167.5 -24.95
M -182.3 11.65
L -179.5 11.65 -179.5 4.7 -179.5 -0.25 -179.5 -1.65
M -167.5 -3.05
L -167.5 -6.6 -155.5 -6.6 -155.5 -13.6 -143.5 -13.6 -143.5 -21.825
Q -148.5365234375 -24.773046875 -154.75 -24.95
M -167.5 0.3
L -167.5 4.7 -155.5 4.7 -155.5 -2.4
M -155.5 -4.45
L -155.5 -6.6 -143.5 -6.6 -143.5 -13.6 -135.025 -13.6
Q -136.4884765625 -15.903125 -138.55 -17.95 -140.863671875 -20.263671875 -143.5 -21.825
L -143.5 -24.95
M -155.5 -4.45
L -155.5 -2.4
M -131.5 -1.65
Q -131.575 -4.229296875 -132.125 -6.6
L -143.5 -6.6 -143.5 -3.85
M -143.5 0.075
L -143.5 4.65 -132.125 4.65
Q -131.5744140625 2.3017578125 -131.5 -0.25
M -143.5 -3.85
L -143.5 0.075
M -131.5 -13.6
L -135.025 -13.6
Q -132.9783203125 -10.3544921875 -132.125 -6.6
L -131.5 -6.6
M -131.5 4.65
L -132.125 4.65
Q -132.119140625 4.675 -132.125 4.7
L -131.5 4.7
M -132.125 4.7
Q -132.982421875 8.4234375 -135.025 11.65
L -131.5 11.65
M -135.025 11.65
Q -136.4869140625 13.9515625 -138.55 16 -140.863671875 18.3302734375 -143.5 19.9
L -143.5 23 -132.1 23
M -143.5 4.65
L -143.5 4.7 -132.125 4.7
M -143.5 4.7
L -143.5 11.65 -135.025 11.65
M -143.5 4.7
L -155.5 4.7 -155.5 11.65 -143.5 11.65 -143.5 19.9
Q -148.5365234375 22.8716796875 -154.75 23.05
L -143.5 23.05 -143.5 23
M -154.75 23.05
L -155.5 23.05 -156.25 23.05 -167.5 23.05 -179.5 23.05 -179.5 11.65 -176 11.65
Q -178.0263671875 8.4234375 -178.875 4.7
L -179.5 4.7
M -155.5 11.65
L -155.5 23.05
M -167.5 4.7
L -167.5 11.65 -155.5 11.65
M -156.25 23.05
Q -162.4681640625 22.8732421875 -167.5 19.925
L -167.5 23.05
M -176 11.65
Q -174.5484375 13.9515625 -172.5 16 -170.1666015625 18.35 -167.5 19.925
L -167.5 11.65 -176 11.65 Z
M -167.5 4.7
L -178.875 4.7
Q -179.4248046875 2.32890625 -179.5 -0.25
M -210.85 1.3
L -211.65 1.3 -210.875 0.525
M -212.4 1.35
L -212.5 1.35 -212.5 2.15 -212.4 2.05
M -212.5 2.15
L -212.5 2.75 -212.5 4.325
M -212.5 7.65
L -212.65 7.65
M -212.4 2.15
L -212.5 2.15
M -211.65 1.35
L -211.65 2.15
M -212.4 2.05
L -211.7 1.35
M -213.3 8.45
Q -213.191796875 8.07734375 -213.1 7.7
L -221.35 7.7
M -221.35 7.65
L -222.95 7.65
M -221.35 7.7
L -222.95 7.7
M -221.35 7.65
L -213.1 7.65
Q -213.00703125 7.2529296875 -212.925 6.85
M -222.95 7.65
L -224.5 7.65 -224.5 7.7 -222.95 7.7
M -220.175 19.6
Q -219.8556640625 19.3125 -219.55 19 -217.5 16.95 -216 14.65 -214.2041015625 11.7314453125 -213.3 8.45
M -213.025 7.7
L -213.1 7.7 -213.1 7.65 -213.025 7.65
M -212.5 2.75
Q -212.5416015625 4.869140625 -212.925 6.85
M -212.5 7.7
L -212.65 7.7 -213.025 7.7
M -214.125 14.65
L -215.95 14.65
M -213.1 26
L -214.575 26
M -212.65 7.65
L -213.025 7.65
M -215.95 14.65
L -216 14.65
M -214.575 26
L -216.475 26
M -258.525 26.05
L -260.5 26.05 -260.5 14.65 -263.3 14.65
M -224.5 24.725
L -224.5 26 -216.475 26
M -256.65 26.05
L -258.525 26.05
M -258.95 14.65
L -260.5 14.65 -260.5 11.425
M -262.15 0.4
L -262.15 -0.3
M -224.5 22.95
L -224.5 24.725
M -227.375 26.05
L -224.5 26.05 -224.5 26
M -220.175 19.6
Q -220.758984375 20.1697265625 -221.375 20.675
M -229.7 25.125
Q -226.966796875 24.341015625 -224.5 22.9 -222.8669921875 21.944921875 -221.375 20.675
M -224.5 6.85
L -224.5 7.65
M -224.5 8.45
L -224.5 7.7 -235.7 7.7
M -236.5 8.45
L -236.5 13.8
M -229.675 14.65
L -235.7 14.65
M -236.5 6.85
L -236.5 7.7 -235.7 7.7
M -237.3 7.7
L -236.5 7.7 -236.5 8.45
M -236.5 13.8
L -236.5 14.65 -235.7 14.65
M -224.5 16.675
L -224.5 14.65 -224.825 14.65
M -237.3 14.65
L -236.5 14.65 -236.5 15.35
M -224.5 16.675
L -224.5 18.225 -224.5 18.475
M -236.5 15.35
L -236.5 26.05
M -229.7 25.125
Q -232.555859375 25.9412109375 -235.7 26.05
M -224.5 22.9
L -224.5 22.95
M -222.975 14.65
L -224.5 14.65 -224.5 13.825
M -227.375 26.05
L -230.975 26.05
M -235.7 26.05
L -236.5 26.05 -237.3 26.05
M -234.85 26.05
L -235.7 26.05
M -243.325 25.125
Q -240.4564453125 25.9408203125 -237.3 26.05
L -238.15 26.05
M -245.675 26.05
L -248.5 26.05 -256.65 26.05
M -257.125 14.65
L -258.95 14.65
M -260.5 11.425
L -260.5 8.45
M -260.5 6.85
L -260.5 4.85
M -260.65 1.35
L -261.3 1.35 -262.15 1.35 -262.15 0.55 -262.15 0.4
M -242.025 26.05
L -245.675 26.05
M -248.5 24.775
L -248.5 26.05
M -238.15 26.05
L -242.025 26.05
M -248.5 22.975
L -248.5 24.775
M -252.875 19.6
Q -253.1955078125 19.3044921875 -253.5 19 -255.55 16.95 -257 14.65
L -257.125 14.65
M -260.5 8.45
L -260.5 7.7 -260.5 6.85
M -260.5 4.85
L -260.5 2.75 -260.5 1.35 -260.65 1.35
M -260.65 1.2
L -261.3 0.55 -261.3 1.35
M -230.975 26.05
L -234.85 26.05
M -243.325 25.125
Q -246.0431640625 24.3607421875 -248.5 22.95
L -248.5 22.975
M -251.675 20.675
Q -252.2875 20.155859375 -252.875 19.6
M -257 14.65
Q -258.8408203125 11.7314453125 -259.675 8.45
M -248.5 6.85
L -248.5 7.7 -237.3 7.7
M -248.5 8.45
L -248.5 7.7 -250.1 7.7
M -251.7 7.7
L -259.85 7.7
Q -259.768359375 8.07734375 -259.675 8.45
M -260.025 7.7
L -260.5 7.7
M -250.1 7.7
L -251.7 7.7
M -260.5 1.35
L -260.65 1.2
M -260.6 0.5
L -261.3 0.5 -260.55 -0.25
M -262.15 0.55
L -261.35 0.55 -261.3 0.55
M -262.15 1.35
L -261.35 0.55
M -260.025 6.85
Q -260.41796875 4.884375 -260.5 2.75
M -260.025 7.7
L -259.85 7.7
Q -259.9484375 7.2791015625 -260.025 6.85
M -248.5 16.65
L -248.5 18.325
M -248.5 22.95
Q -250.1515625 21.9529296875 -251.675 20.675
M -248.5 13.975
L -248.5 14.65 -248.225 14.65
M -248.5 16.65
L -248.5 14.65 -250.075 14.65
M -248.5 18.325
L -248.5 18.45
M -237.3 14.65
L -243.35 14.65
M -224.5 -0.85
L -224.5 3.075
M -248.5 -0.05
L -248.5 3.3
M -236.5 -1.45
L -236.5 0.6
M -167.5 -3.05
L -167.5 0.3"/>

<path id="Layer1_0_3_STROKES" stroke="#FFFF00" stroke-width="0.1" stroke-linejoin="round" stroke-linecap="round" fill="none" d="
M -243.55 -20.975
Q -243.430078125 -21.07109375 -243.3 -21.175 -246.0310546875 -20.4119140625 -248.5 -18.975
M -239.25 -21.95
Q -241.338671875 -21.735546875 -243.3 -21.175 -242.766015625 -21.603125 -242.225 -21.95
M -248.5 -20.8
Q -247.2728515625 -21.448828125 -245.975 -21.95
M -248.5 -18.975
Q -250.2013671875 -18.0001953125 -251.775 -16.7 -251.7248046875 -16.6583984375 -251.675 -16.625
M -248.5 -20.8
Q -250.85390625 -19.5607421875 -252.975 -17.775 -252.3814453125 -17.21953125 -251.775 -16.7 -252.3685546875 -16.216015625 -252.95 -15.675 -252.897265625 -15.6302734375 -252.85 -15.575
M -251.675 -16.625
Q -250.146875 -15.37421875 -248.5 -14.425 -248.0236328125 -15.33125 -247.5 -16.2 -245.678125 -19.183203125 -243.55 -20.975
M -249.175 -13
Q -248.85390625 -13.71328125 -248.5 -14.4
L -248.5 -14.425
Q -247.6931640625 -13.9552734375 -246.85 -13.55 -246.6361328125 -13.9583984375 -246.4 -14.35 -242.587109375 -20.62734375 -237.3 -21.925
L -237.3 -21.95
M -239.25 -21.95
Q -238.31953125 -22.0466796875 -237.35 -22.075
M -242.225 -21.95
Q -239.9306640625 -23.4251953125 -237.3 -23.625
L -237.3 -23.65
Q -241.9525390625 -23.5146484375 -245.975 -21.95
M -248.5 -12.625
Q -248.045703125 -12.3828125 -247.575 -12.15 -247.2373046875 -12.8685546875 -246.85 -13.55 -242.4724609375 -11.460546875 -237.3 -11.3
L -237.3 -21.925
Q -237.2625 -21.941015625 -237.225 -21.95
M -237.3 -22
L -237.3 -21.95
M -248.5 -12.625
Q -248.834765625 -12.8046875 -249.175 -13 -249.690234375 -11.8314453125 -250.1 -10.6
M -249.175 -13
Q -251.0849609375 -14.102734375 -252.85 -15.575
M -259.7 -4.45
L -251.575 -4.45
Q -251.10390625 -7.699609375 -250.1 -10.6
M -259 -10.6
Q -257.2970703125 -13.5857421875 -254.7 -16.2 -254.419921875 -16.4783203125 -254.125 -16.75 -254.4197265625 -17.0177734375 -254.7 -17.3 -256.9017578125 -19.487109375 -258.45 -21.95
M -257.175 -10.6
Q -255.694921875 -12.955078125 -253.6 -15.05 -253.2771484375 -15.370703125 -252.95 -15.675 -253.5515625 -16.188671875 -254.125 -16.75 -253.5537109375 -17.28828125 -252.975 -17.775 -253.28515625 -18.08515625 -253.6 -18.4 -255.2998046875 -20.0876953125 -256.6 -21.95
M -258.45 -21.95
Q -262.2 -27.8763671875 -262.2 -35.4 -262.2 -46.05 -254.7 -53.6 -247.2 -61.05 -236.5 -61.05 -225.85 -61.05 -218.4 -53.6 -210.85 -46.05 -210.85 -35.4 -210.85 -27.8763671875 -214.625 -21.95
M -212.5 -7.3
Q -211.09375 -3.639453125 -210.875 0.5
M -210.85 2
Q -210.85 2.075 -210.85 2.15 -210.874609375 7.0470703125 -212.5 11.275
M -257.175 -10.6
Q -258.962109375 -7.71953125 -259.825 -4.45
L -259.7 -4.45
M -251.7 -3.6
Q -251.6466796875 -4.0279296875 -251.575 -4.45
L -249.975 -4.45
Q -249.480859375 -7.3861328125 -248.5 -10
M -248.275 -10.6
Q -247.951171875 -11.395703125 -247.575 -12.15 -245.5388671875 -11.1814453125 -243.325 -10.6
M -237.3 -10.6
L -237.3 -11.3
Q -236.90234375 -11.3 -236.5 -11.3
M -237.225 -21.95
Q -236.86796875 -22.0365234375 -236.5 -22.1 -236.860546875 -22.1 -237.225 -22.075
M -237.3 -22
L -237.3 -22.075 -237.35 -22.075
M -237.3 -23.6
L -237.3 -23.625
Q -237.0884765625 -23.6421875 -236.875 -23.65 -237.0880859375 -23.647265625 -237.3 -23.65
L -237.3 -25.6
M -260.5 -7.45
Q -259.86796875 -9.0681640625 -259 -10.6
M -260.05 -3.6
Q -259.9392578125 -4.0283203125 -259.825 -4.45
L -260.5 -4.45
M -260.05 -2.85
L -251.8 -2.85
Q -251.75078125 -3.2271484375 -251.7 -3.6
M -250.1 -3.6
Q -250.04765625 -4.0283203125 -249.975 -4.45
L -248.5 -4.45 -237.3 -4.45 -237.3 -9.75
Q -240.4552734375 -9.8451171875 -243.325 -10.6
M -260.5 -2.85
L -260.65 -2.85 -260.65 -4.45 -260.5 -4.45
M -262.1 -0.3
Q -261.8025390625 -4.07734375 -260.5 -7.45
M -260.55 -0.3
Q -260.5275390625 -0.5638671875 -260.5 -0.825
M -262.1 -0.25
L -262.1 -0.3
M -260.05 -2.85
L -260.2 -2.85
Q -260.3908203125 -1.8548828125 -260.5 -0.825
M -260.2 -2.85
L -260.5 -2.85
M -260.55 -0.3
L -260.55 -0.25
Q -260.5861328125 0.12578125 -260.6 0.5
M -260.2 -2.85
Q -260.125 -3.2275390625 -260.05 -3.6
M -252.025 0.65
Q -252.0021484375 -0.4111328125 -251.925 -1.45
M -248.5 -10
Q -248.3865234375 -10.3021484375 -248.275 -10.6
M -237.3 -3.6
L -237.3 -4.45 -236.5 -4.45
M -236.5 -9.75
Q -236.90234375 -9.75 -237.3 -9.75
L -237.3 -10.6
M -236.5 -11.3
Q -236.097265625 -11.3 -235.7 -11.3
L -235.7 -21.925
Q -235.7375 -21.9408203125 -235.775 -21.95
M -237.225 -22.075
Q -237.2611328125 -22.07734375 -237.3 -22.075
L -237.3 -22.75
M -248.5 -2.85
L -237.3 -2.85 -237.3 -3.6
M -236.5 -4.45
L -235.7 -4.45 -235.7 -9.75
Q -236.0974609375 -9.75 -236.5 -9.75
M -235.7 -10.6
L -235.7 -11.3
Q -230.5328125 -11.4607421875 -226.2 -13.55 -226.4142578125 -13.9591796875 -226.65 -14.35 -230.4625 -20.626953125 -235.7 -21.925
L -235.7 -21.95
M -235.775 -21.95
Q -236.1353515625 -22.0365234375 -236.5 -22.1 -236.1732421875 -22.1 -235.85 -22.1
M -237.3 -23.55
L -237.3 -22.75
M -248.5 -2.85
L -250.2 -2.85 -251.8 -2.85
M -250.2 -2.85
Q -250.1583984375 -3.2275390625 -250.1 -3.6
M -256.6 -21.95
Q -260.65 -27.8111328125 -260.65 -35.4 -260.65 -45.4 -253.6 -52.45 -246.5 -59.5 -236.5 -59.5 -226.5 -59.5 -219.5 -52.45 -212.4 -45.4 -212.4 -35.4 -212.4 -27.8111328125 -216.5 -21.95
M -214.625 -21.95
Q -216.18359375 -19.487109375 -218.4 -17.3 -218.678125 -17.0181640625 -218.95 -16.75 -218.6787109375 -16.4787109375 -218.4 -16.2 -215.783984375 -13.583984375 -214.075 -10.6
M -221.425 -16.65
Q -221.371484375 -16.6857421875 -221.325 -16.725 -222.8482421875 -17.9966796875 -224.5 -18.975 -226.984375 -20.4330078125 -229.75 -21.225 -229.576953125 -21.0853515625 -229.4 -20.925
M -224.5 -20.775
Q -222.199609375 -19.551171875 -220.125 -17.8 -219.805859375 -18.08984375 -219.5 -18.4 -217.7880859375 -20.0876953125 -216.5 -21.95
M -227.05 -21.95
Q -225.7435546875 -21.4392578125 -224.5 -20.775
M -230.775 -21.95
Q -230.256640625 -21.61484375 -229.75 -21.225 -231.58984375 -21.7302734375 -233.55 -21.95
M -229.4 -20.925
Q -227.3298828125 -19.1466796875 -225.55 -16.2 -225.0294921875 -15.3359375 -224.575 -14.425 -224.5341796875 -14.4546875 -224.5 -14.475 -222.8986328125 -15.4126953125 -221.425 -16.65
M -220.225 -15.6
Q -220.190234375 -15.640625 -220.15 -15.675 -220.7287109375 -16.221484375 -221.325 -16.725 -220.7158203125 -17.236328125 -220.125 -17.8 -219.5244140625 -17.29296875 -218.95 -16.75 -219.54453125 -16.188671875 -220.15 -15.675 -219.8177734375 -15.369921875 -219.5 -15.05 -217.3896484375 -12.9544921875 -215.9 -10.6
M -214.075 -10.6
Q -213.156640625 -9.0025390625 -212.5 -7.3
M -212.5 -0.225
Q -212.469921875 0.1296875 -212.45 0.5
M -210.875 0.5
L -210.875 0.525
M -224.5 -14.3
Q -224.181640625 -13.6669921875 -223.9 -13.025 -221.980078125 -14.117578125 -220.225 -15.6
M -215.9 -10.6
Q -214.0958984375 -7.71875 -213.225 -4.45
L -212.65 -4.45 -212.65 -3.6
M -224.5 -12.675
Q -224.194140625 -12.83984375 -223.9 -13.025 -223.3751953125 -11.844140625 -222.95 -10.6 -221.940234375 -7.696875 -221.45 -4.45
L -213.325 -4.45
M -224.5 -14.3
Q -224.533984375 -14.3673828125 -224.575 -14.425 -225.3685546875 -13.95703125 -226.2 -13.55 -225.8185546875 -12.87578125 -225.475 -12.175 -224.983203125 -12.4123046875 -224.5 -12.675
M -227.05 -21.95
Q -231.06328125 -23.5142578125 -235.7 -23.65
L -235.7 -23.625
Q -233.0689453125 -23.4251953125 -230.775 -21.95
M -233.55 -21.95
Q -234.612109375 -22.0673828125 -235.7 -22.1
L -235.7 -21.95
M -235.85 -22.1
Q -235.7748046875 -22.1 -235.7 -22.1
L -235.7 -22.8
M -235.7 -23.625
L -235.7 -23.6 -235.7 -22.8
M -235.7 -23.65
Q -235.91171875 -23.647265625 -236.125 -23.65 -235.9111328125 -23.6421875 -235.7 -23.625
M -237.3 -23.6
L -237.3 -23.55
M -236.875 -23.65
L -236.125 -23.65
M -235.7 -10.6
L -235.7 -9.75
Q -232.5701171875 -9.8458984375 -229.725 -10.6
M -235.7 -3.6
L -235.7 -4.45 -224.5 -4.45 -223.05 -4.45
Q -223.5548828125 -7.317578125 -224.5 -9.875 -224.6328125 -10.2455078125 -224.775 -10.6 -225.101953125 -11.4037109375 -225.475 -12.175 -227.51484375 -11.1849609375 -229.725 -10.6
M -212.95 -2.85
L -221.25 -2.85 -222.825 -2.85 -224.5 -2.85 -235.7 -2.85 -236.5 -2.85 -237.3 -2.85
M -235.7 -3.6
L -235.7 -2.85
M -222.925 -3.6
Q -222.987890625 -4.0283203125 -223.05 -4.45
L -221.45 -4.45
Q -221.389453125 -4.0279296875 -221.325 -3.6
M -213.325 -4.45
L -213.225 -4.45
Q -213.11171875 -4.028125 -213 -3.6
M -212.65 -3.6
L -212.65 -2.85 -212.85 -2.85
Q -212.6083984375 -1.57109375 -212.5 -0.225
M -212.45 0.5
L -212.45 0.55
M -222.925 -3.6
Q -222.87265625 -3.2275390625 -222.825 -2.85
M -221.325 -3.6
Q -221.290234375 -3.2271484375 -221.25 -2.85
M -213 -3.6
Q -212.9259765625 -3.22734375 -212.85 -2.85
L -212.95 -2.85
M -212.45 0.55
Q -212.4224609375 0.949609375 -212.4 1.35
M -212.4 2.15
Q -212.405859375 3.26015625 -212.5 4.325
M -212.5 11.275
Q -213.1744140625 13.0158203125 -214.125 14.65
M -235.7 -25.6
L -235.7 -23.65
M -210.875 0.525
Q -210.859375 0.9099609375 -210.85 1.3
M -212.4 2.05
L -212.4 2
Q -212.4 1.674609375 -212.4 1.35
M -212.5 4.325
Q -212.6119140625 5.6181640625 -212.85 6.85
L -212.65 6.85 -212.65 7.65
M -212.4 2.05
Q -212.4 2.1 -212.4 2.15
M -222.55 1.725
Q -222.55 1.8650390625 -222.55 2 -222.55 3.4578125 -222.65 4.85
M -221.35 7.7
Q -221.39921875 8.0775390625 -221.45 8.45
L -213.3 8.45
M -221.35 7.65
Q -221.353125 7.675 -221.35 7.7
M -222.95 7.65
Q -222.9470703125 7.675 -222.95 7.7
M -221.35 7.65
Q -221.2986328125 7.252734375 -221.25 6.85
L -212.925 6.85
M -221.25 6.85
L -222.85 6.85
Q -222.8982421875 7.2529296875 -222.95 7.65
M -222.95 7.7
Q -223.01484375 8.077734375 -223.075 8.45
L -221.45 8.45
Q -221.9466796875 11.7365234375 -222.975 14.65 -223.3880859375 15.8572265625 -223.9 17 -221.9556640625 18.116015625 -220.175 19.6
M -213.3 8.45
L -213.225 8.45
Q -213.1220703125 8.0775390625 -213.025 7.7
M -213.025 7.65
Q -212.928125 7.2529296875 -212.85 6.85
L -212.925 6.85
M -212.65 7.65
L -212.65 7.7
M -213.025 7.65
Q -213.0306640625 7.675 -213.025 7.7
M -212.65 7.7
L -212.65 8.45 -213.225 8.45
Q -214.1095703125 11.753125 -215.95 14.65
M -214.125 14.65
Q -215.826953125 17.5609375 -218.4 20.1 -218.691015625 20.394921875 -218.975 20.675 -218.69140625 20.95859375 -218.4 21.25 -216.161328125 23.488671875 -214.575 26
M -215.95 14.65
Q -217.42421875 16.9533203125 -219.5 19 -219.8201171875 19.324609375 -220.15 19.625 -219.55234375 20.1330078125 -218.975 20.675 -219.570703125 21.236328125 -220.175 21.75 -219.831640625 22.0658203125 -219.5 22.4 -217.7748046875 24.1130859375 -216.475 26
M -214.575 26
Q -210.85 31.9580078125 -210.85 39.45 -210.85 50.1 -218.4 57.55 -225.85 65.1 -236.5 65.1 -247.2 65.1 -254.7 57.55 -262.2 50.1 -262.2 39.45 -262.2 31.9892578125 -258.525 26.05
M -220.175 19.6
L -220.15 19.625
Q -220.7375 20.1923828125 -221.35 20.7 -220.7513671875 21.2056640625 -220.175 21.75 -222.2244140625 23.4990234375 -224.5 24.725
M -216.475 26
Q -212.4 31.8798828125 -212.4 39.45 -212.4 49.45 -219.5 56.45 -226.5 63.55 -236.5 63.55 -246.5 63.55 -253.6 56.45 -260.65 49.45 -260.65 39.45 -260.65 31.9119140625 -256.65 26.05
M -258.525 26.05
Q -256.94609375 23.5109375 -254.7 21.25 -254.4060546875 20.9580078125 -254.1 20.675 -254.406640625 20.3953125 -254.7 20.1 -257.2560546875 17.5609375 -258.95 14.65
M -260.5 11.425
Q -262.2 7.0771484375 -262.2 2 -262.2 1.1912109375 -262.15 0.4
M -221.375 20.675
L -221.35 20.7
Q -222.8607421875 21.9765625 -224.5 22.95
M -224.5 24.725
Q -225.895703125 25.4900390625 -227.375 26.05
M -221.375 20.675
Q -222.869140625 19.4376953125 -224.5 18.475 -224.5498046875 18.4541015625 -224.6 18.425 -225.049609375 19.2806640625 -225.55 20.1 -227.45390625 23.29453125 -229.7 25.125
M -224.5 8.45
L -235.7 8.45 -235.7 13.8
Q -232.5435546875 13.8951171875 -229.675 14.65 -227.5052734375 15.2208984375 -225.5 16.175 -225.137890625 15.427734375 -224.825 14.65 -224.6560546875 14.2375 -224.5 13.825 -223.5599609375 11.2896484375 -223.075 8.45
L -224.5 8.45 Z
M -235.7 7.7
L -235.7 8.45 -236.5 8.45
M -236.5 13.8
Q -236.0974609375 13.8 -235.7 13.8
L -235.7 14.65
M -260.025 6.85
L -251.8 6.85 -250.2 6.85 -248.5 6.85 -237.3 6.85 -236.5 6.85 -235.7 6.85 -224.5 6.85 -222.85 6.85
M -235.7 6.85
L -235.7 7.7
M -237.3 6.85
L -237.3 7.7
M -236.5 8.45
L -237.3 8.45 -237.3 13.8
Q -236.9021484375 13.8 -236.5 13.8
M -235.7 14.65
L -235.7 15.35
Q -230.55625 15.509765625 -226.225 17.575 -225.8380859375 16.8869140625 -225.5 16.175 -224.993359375 16.41015625 -224.5 16.675
M -237.3 7.7
L -237.3 8.45 -248.5 8.45 -249.975 8.45
Q -249.477734375 11.36953125 -248.5 13.975 -248.3705078125 14.31484375 -248.225 14.65 -247.913671875 15.425 -247.55 16.175 -245.5345703125 15.2208984375 -243.35 14.65 -240.470703125 13.8947265625 -237.3 13.8
L -237.3 14.65
M -236.5 15.35
Q -236.0974609375 15.35 -235.7 15.35
L -235.7 25.9
Q -230.46171875 24.6220703125 -226.65 18.3 -226.4306640625 17.9390625 -226.225 17.575 -225.396875 17.9625 -224.6 18.425 -224.549609375 18.3279296875 -224.5 18.225
M -224.5 16.675
Q -224.1974609375 16.8306640625 -223.9 17 -224.191015625 17.625390625 -224.5 18.225
M -237.3 14.65
L -237.3 15.35
Q -236.9021484375 15.35 -236.5 15.35
M -236.5 26.05
Q -236.095703125 25.983203125 -235.7 25.9
L -235.7 26.05
M -229.7 25.125
Q -229.75390625 25.16328125 -229.8 25.2 -227.0025390625 24.4275390625 -224.5 22.95
M -229.8 25.2
Q -230.3755859375 25.6748046875 -230.975 26.05
M -227.375 26.05
Q -231.2529296875 27.5193359375 -235.7 27.65
L -235.7 29
M -237.3 26.05
L -237.3 26.1
Q -236.9033203125 26.1 -236.5 26.1 -236.0974609375 26.1 -235.7 26.1
L -235.7 26.05
M -229.8 25.2
Q -232.21484375 25.8896484375 -234.85 26.05
M -236.5 26.05
Q -236.9041015625 25.9837890625 -237.3 25.9
L -237.3 26.05
M -243.325 25.125
Q -243.2572265625 25.179296875 -243.2 25.225 -240.7857421875 25.8896484375 -238.15 26.05
M -235.7 27.65
Q -235.91171875 27.647265625 -236.125 27.65
L -236.875 27.65
Q -237.0880859375 27.647265625 -237.3 27.65
L -237.3 29
M -236.875 27.65
Q -237.0884765625 27.6421875 -237.3 27.625
L -237.3 27.65
Q -241.7751953125 27.5205078125 -245.675 26.05
M -256.65 26.05
Q -255.335546875 24.135546875 -253.6 22.4 -253.261328125 22.063671875 -252.925 21.75 -253.5169921875 21.2326171875 -254.1 20.675 -253.5357421875 20.1408203125 -252.95 19.65 -253.2724609375 19.3275390625 -253.6 19 -255.661328125 16.9533203125 -257.125 14.65
M -258.95 14.65
Q -259.849609375 13.091796875 -260.5 11.425
M -260.5 8.45
L -260.65 8.45 -260.65 6.85 -260.5 6.85
M -260.5 4.85
Q -260.65 3.4546875 -260.65 2 -260.65 1.6734375 -260.65 1.35
M -262.15 0.4
Q -262.129296875 0.0744140625 -262.1 -0.25
M -230.975 26.05
Q -233.1853515625 27.43359375 -235.7 27.625
L -235.7 27.65
M -235.7 27.625
Q -235.911328125 27.6421875 -236.125 27.65
M -237.3 26.1
L -237.3 27.625
Q -239.814453125 27.4337890625 -242.025 26.05
M -245.675 26.05
Q -247.1310546875 25.5052734375 -248.5 24.775
M -234.85 26.05
Q -235.2720703125 26.0759765625 -235.7 26.1
L -235.7 27.625
M -242.025 26.05
Q -242.6279296875 25.675390625 -243.2 25.225 -245.9951171875 24.4353515625 -248.5 22.975
M -248.5 24.775
Q -250.8234375 23.527734375 -252.925 21.75 -252.330859375 21.209375 -251.725 20.725 -252.3482421875 20.2078125 -252.95 19.65 -252.91796875 19.623046875 -252.875 19.6
M -257.125 14.65
Q -258.9498046875 11.753125 -259.825 8.45
L -260.5 8.45
M -260.5 6.85
L -260.2 6.85
Q -260.390234375 5.8650390625 -260.5 4.85
M -260.65 1.35
Q -260.64765625 1.2775390625 -260.65 1.2
M -237.3 26.1
Q -237.72890625 26.0759765625 -238.15 26.05
M -237.3 15.35
L -237.3 25.9
Q -242.585546875 24.6263671875 -246.4 18.3 -246.61796875 17.941015625 -246.825 17.575 -247.65078125 17.965234375 -248.45 18.425 -247.999609375 19.28203125 -247.5 20.1 -245.5828125 23.2810546875 -243.325 25.125
M -248.5 22.975
Q -250.173046875 21.995703125 -251.725 20.725 -251.7013671875 20.6962890625 -251.675 20.675
M -252.875 19.6
Q -251.0927734375 18.101171875 -249.15 17 -249.66171875 15.85703125 -250.075 14.65 -251.103125 11.7361328125 -251.6 8.45
L -259.675 8.45
M -250.425 4.425
Q -250.5 3.235546875 -250.5 2 -250.5 1.4015625 -250.475 0.825
M -252.025 0.675
L -252.025 0.65
M -250.1 7.7
Q -250.03515625 8.077734375 -249.975 8.45
L -251.6 8.45
Q -251.65078125 8.0775390625 -251.7 7.7
M -259.675 8.45
L -259.825 8.45
Q -259.928515625 8.077734375 -260.025 7.7
M -250.1 7.7
Q -250.1484375 7.2783203125 -250.2 6.85
M -251.7 7.7
Q -251.7541015625 7.278125 -251.8 6.85
M -260.65 1.2
Q -260.6341796875 0.8486328125 -260.6 0.5
M -260.025 6.85
L -260.2 6.85
Q -260.1177734375 7.2783203125 -260.025 7.7
M -246.825 17.575
Q -247.20859375 16.88828125 -247.55 16.175 -248.0306640625 16.39921875 -248.5 16.65
M -248.5 18.325
Q -248.475 18.3765625 -248.45 18.425 -248.475 18.439453125 -248.5 18.45 -250.1501953125 19.4123046875 -251.675 20.675
M -248.5 16.65
Q -248.827734375 16.8171875 -249.15 17 -248.837109375 17.6732421875 -248.5 18.325
M -246.825 17.575
Q -242.454296875 15.509375 -237.3 15.35
M -237.3 -0.55
L -237.3 2.4
M -235.7 -1.125
L -235.7 2.275
M -221.125 -1.45
Q -221.02890625 -0.1578125 -221 1.175"/>

<path id="small_0_Layer0_0_1_STROKES" stroke="#FF0000" stroke-width="0.1" stroke-linejoin="round" stroke-linecap="round" fill="none" d="
M 0 1.65
L 0 0.85 0 0 0.85 0 1.65 0 1.65 0.8 1.65 1.65 0.85 1.65 0 1.65 0.8 0.85 0 0.85
M 0.8 0.85
L 0.85 0.85 0 0
M 0.85 0.85
L 0.85 0.8 0.85 0
M 1.65 1.65
L 0.85 0.85 0.85 1.65
M 1.65 0
L 0.85 0.8 1.65 0.8"/>

<path id="Layer1_5_1_STROKES" stroke="#FFFF00" stroke-width="0.1" stroke-linejoin="round" stroke-linecap="round" fill="none" d="
M -131.40321044921876 -0.9992950439453119
Q -131.40321044921876 8.981779479980469 -138.49153747558591 16.00756378173828 -145.5240509033203 23.089108276367188 -155.51468505859373 23.089108276367188 -165.5053192138672 23.089108276367188 -172.59364624023442 16.00756378173828 -179.62615966796875 8.981779479980469 -179.62615966796875 -0.9992950439453119 -179.62615966796875 -10.980369567871094 -172.59364624023442 -18.061914062499998 -165.5053192138672 -25.08769836425781 -155.51468505859373 -25.08769836425781 -145.5240509033203 -25.08769836425781 -138.49153747558591 -18.061914062499998 -131.40321044921876 -10.980369567871094 -131.40321044921876 -0.9992950439453119 Z
M -129.84042968749998 -0.9992950439453119
Q -129.84042968749998 9.650901794433594 -137.37526550292966 17.122767639160156 -144.85428771972659 24.650393676757815 -155.51468505859373 24.650393676757815 -166.17508239746098 24.650393676757815 -173.70991821289067 17.122767639160156 -181.18894042968748 9.650901794433594 -181.18894042968748 -0.9992950439453119 -181.18894042968748 -11.649491882324218 -173.70991821289067 -19.177117919921873 -166.17508239746098 -26.648983764648435 -155.51468505859373 -26.648983764648435 -144.85428771972659 -26.648983764648435 -137.37526550292966 -19.177117919921873 -129.84042968749998 -11.649491882324218 -129.84042968749998 -0.9992950439453119 Z"/>

<path id="Layer1_6_1_STROKES" stroke="#FFFF00" stroke-width="0.1" stroke-linejoin="round" stroke-linecap="round" fill="none" d="
M -236.65 -6.8
L -188.65 -6.8 -188.65 -5.2 -236.65 -5.2 -236.65 -6.8 Z"/>

<path id="Layer1_7_1_STROKES" stroke="#FFFF00" stroke-width="0.1" stroke-linejoin="round" stroke-linecap="round" fill="none" d="
M -236.65 -6.8
L -188.65 -6.8 -188.65 -5.2 -236.65 -5.2 -236.65 -6.8 Z"/>

<path id="Layer1_8_1_STROKES" stroke="#FFFF00" stroke-width="0.1" stroke-linejoin="round" stroke-linecap="round" fill="none" d="
M -236.65 -6.8
L -188.65 -6.8 -188.65 -5.2 -236.65 -5.2 -236.65 -6.8 Z"/>

<path id="Layer1_9_1_STROKES" stroke="#FFFF00" stroke-width="0.1" stroke-linejoin="round" stroke-linecap="round" fill="none" d="
M -129.84042968749998 -38.39929504394531
Q -129.84042968749998 -27.749098205566405 -137.37526550292966 -20.27723236083984 -144.85428771972659 -12.749606323242183 -155.51468505859373 -12.749606323242183 -166.17508239746098 -12.749606323242183 -173.70991821289067 -20.27723236083984 -181.18894042968748 -27.749098205566405 -181.18894042968748 -38.39929504394531 -181.18894042968748 -49.04949188232422 -173.70991821289067 -56.577117919921875 -166.17508239746098 -64.04898376464843 -155.51468505859373 -64.04898376464843 -144.85428771972659 -64.04898376464843 -137.37526550292966 -56.577117919921875 -129.84042968749998 -49.04949188232422 -129.84042968749998 -38.39929504394531 Z
M -131.40321044921876 -38.39929504394531
Q -131.40321044921876 -28.418220520019528 -138.49153747558591 -21.392436218261714 -145.5240509033203 -14.31089172363281 -155.51468505859373 -14.31089172363281 -165.5053192138672 -14.31089172363281 -172.59364624023442 -21.392436218261714 -179.62615966796875 -28.418220520019528 -179.62615966796875 -38.39929504394531 -179.62615966796875 -48.38036956787109 -172.59364624023442 -55.4619140625 -165.5053192138672 -62.48769836425781 -155.51468505859373 -62.48769836425781 -145.5240509033203 -62.48769836425781 -138.49153747558591 -55.4619140625 -131.40321044921876 -48.38036956787109 -131.40321044921876 -38.39929504394531 Z"/>

<path id="Layer1_10_1_STROKES" stroke="#FFFF00" stroke-width="0.1" stroke-linejoin="round" stroke-linecap="round" fill="none" d="
M -129.84042968749998 36.450704956054686
Q -129.84042968749998 47.10090179443359 -137.37526550292966 54.572767639160155 -144.85428771972659 62.10039367675781 -155.51468505859373 62.10039367675781 -166.17508239746098 62.10039367675781 -173.70991821289067 54.572767639160155 -181.18894042968748 47.10090179443359 -181.18894042968748 36.450704956054686 -181.18894042968748 25.80050811767578 -173.70991821289067 18.272882080078123 -166.17508239746098 10.801016235351561 -155.51468505859373 10.801016235351561 -144.85428771972659 10.801016235351561 -137.37526550292966 18.272882080078123 -129.84042968749998 25.80050811767578 -129.84042968749998 36.450704956054686 Z
M -131.40321044921876 36.450704956054686
Q -131.40321044921876 46.43177947998046 -138.49153747558591 53.45756378173828 -145.5240509033203 60.53910827636719 -155.51468505859373 60.53910827636719 -165.5053192138672 60.53910827636719 -172.59364624023442 53.45756378173828 -179.62615966796875 46.43177947998046 -179.62615966796875 36.450704956054686 -179.62615966796875 26.469630432128902 -172.59364624023442 19.388085937499998 -165.5053192138672 12.362301635742185 -155.51468505859373 12.362301635742185 -145.5240509033203 12.362301635742185 -138.49153747558591 19.388085937499998 -131.40321044921876 26.469630432128902 -131.40321044921876 36.450704956054686 Z"/>

<path id="Layer1_11_1_STROKES" stroke="#FFFF00" stroke-width="0.1" stroke-linejoin="round" stroke-linecap="round" fill="none" d="
M -141.5491180419922 -0.9992950439453119
Q -141.5491180419922 8.535697937011719 -145.66412353515625 15.282681274414061 -149.74539947509766 22.085424804687502 -155.51315307617188 22.085424804687502 -161.2809066772461 22.085424804687502 -165.39591217041016 15.282681274414061 -169.47718811035156 8.535697937011719 -169.47718811035156 -0.9992950439453119 -169.47718811035156 -10.534288024902343 -165.39591217041016 -17.33703155517578 -161.2809066772461 -24.084014892578125 -155.51315307617188 -24.084014892578125 -149.74539947509766 -24.084014892578125 -145.66412353515625 -17.33703155517578 -141.5491180419922 -10.534288024902343 -141.5491180419922 -0.9992950439453119 Z
M -139.99755859375 -0.9992950439453119
Q -139.99755859375 9.650901794433594 -144.5510482788086 17.122767639160156 -149.07080841064453 24.650393676757815 -155.51315307617188 24.650393676757815 -161.95549774169922 24.650393676757815 -166.5089874267578 17.122767639160156 -171.02874755859375 9.650901794433594 -171.02874755859375 -0.9992950439453119 -171.02874755859375 -11.649491882324218 -166.5089874267578 -19.177117919921873 -161.95549774169922 -26.648983764648435 -155.51315307617188 -26.648983764648435 -149.07080841064453 -26.648983764648435 -144.5510482788086 -19.177117919921873 -139.99755859375 -11.649491882324218 -139.99755859375 -0.9992950439453119 Z"/>
</defs>

<g transform="matrix( 1, 0, 0, 1, 0,0) ">
<use xlink:href="#Layer2_0_FILL"/>
</g>

<g transform="matrix( 1, 0, 0, 1, 0,0) ">
<use xlink:href="#Layer1_0_FILL"/>

<use xlink:href="#Layer1_0_1_STROKES"/>

<use xlink:href="#Layer1_0_2_STROKES"/>

<use xlink:href="#Layer1_0_3_STROKES"/>
</g>

<g transform="matrix( 1, 0, 0, 0.61627197265625, -81.95,-6.15) ">
<g transform="matrix( 1, 0, 0, 1, 0,0) ">
<use xlink:href="#eyes_robot_0_Layer0_0_FILL"/>
</g>
</g>

<g transform="matrix( 1, 0, 0, 1, -131.5,-2.5) ">
<g transform="matrix( 1, 0, 0, 1, 0,0) ">
<use xlink:href="#small_0_Layer0_0_1_STROKES"/>
</g>
</g>

<g transform="matrix( 1, 0, 0, 1, -181.15,-3.3) ">
<g transform="matrix( 1, 0, 0, 1, 0,0) ">
<use xlink:href="#small_0_Layer0_0_1_STROKES"/>
</g>
</g>

<g transform="matrix( 1, 0, 0, 1, -156.35,-26.6) ">
<g transform="matrix( 1, 0, 0, 1, 0,0) ">
<use xlink:href="#small_0_Layer0_0_1_STROKES"/>
</g>
</g>

<g transform="matrix( 1.11627197265625, 0, 0, 1.115203857421875, 95.2,3.35) ">
<use xlink:href="#Layer1_5_1_STROKES" transform="matrix( 0.8958282470703125, 0, 0, 0.8966827392578125, -85.25,-3) "/>
</g>

<g transform="matrix( 1, 0, 0, 1, 57,-0.65) ">
<use xlink:href="#Layer1_6_1_STROKES"/>
</g>

<g transform="matrix( 1, 0, 0, 1, 57,-0.65) ">
<use xlink:href="#Layer1_7_1_STROKES"/>
</g>

<g transform="matrix( 1, 0, 0, 1, 57,10.65) ">
<use xlink:href="#Layer1_8_1_STROKES"/>
</g>

<g transform="matrix( 1.11627197265625, 0, 0, 1.115203857421875, 95.2,-34.05) ">
<use xlink:href="#Layer1_9_1_STROKES" transform="matrix( 0.8958282470703125, 0, 0, 0.8966827392578125, -85.25,30.5) "/>
</g>

<g transform="matrix( 1.11627197265625, 0, 0, 1.115203857421875, 95.2,40.8) ">
<use xlink:href="#Layer1_10_1_STROKES" transform="matrix( 0.8958282470703125, 0, 0, 0.8966827392578125, -85.25,-36.55) "/>
</g>

<g transform="matrix( 0.674591064453125, 0, 0, 1.115203857421875, -4,3.35) ">
<use xlink:href="#Layer1_11_1_STROKES" transform="matrix( 1.4823760986328125, 0, 0, 0.8966827392578125, 5.9,-3) "/>
</g>

<g transform="matrix( 1, 0, 0, 1.004180908203125, 1.5,1.5) ">
<g transform="matrix( 1, 0, 0, 1, 0,0) ">
<use filter="url(#Filter_1)" xlink:href="#www_globe_0_Layer0_0_FILL"/>
</g>
</g>
</svg>
